<mxfile host="app.diagrams.net" modified="2024-03-13T05:02:36.929Z" agent="Mozilla/5.0 (Windows NT 10.0; Win64; x64) AppleWebKit/537.36 (KHTML, like Gecko) Chrome/122.0.0.0 Safari/537.36 Edg/122.0.0.0" version="24.0.5" etag="Y5i2p1oCFJZmg_ALXeVJ" type="github">
  <diagram name="Halaman-1" id="9irp_9Gt-wbpUjiw4Oy6">
    <mxGraphModel>
      <root>
        <mxCell id="0" />
        <mxCell id="1" parent="0" />
      </root>
    </mxGraphModel>
  </diagram>
</mxfile>
